HIERARCHY
ROOT Hips
{
	OFFSET 53.187302 -10.479916 95.914001
	CHANNELS 6 Xposition Yposition Zposition Xrotation Yrotation Zrotation
	JOINT spine
	{
		OFFSET 0.000000 -0.467661 8.132492
		CHANNELS 3 Xrotation Yrotation Zrotation
		JOINT spine1
		{
			OFFSET 0.000000 -0.000002 10.349800
			CHANNELS 3 Xrotation Yrotation Zrotation
			JOINT spine2
			{
				OFFSET 0.000000 -0.000001 9.916992
				CHANNELS 3 Xrotation Yrotation Zrotation
				JOINT Neck
				{
					OFFSET 0.000000 -1.213904 25.461006
					CHANNELS 3 Xrotation Yrotation Zrotation
					JOINT Head
					{
						OFFSET 0.000000 -0.000001 7.692444
						CHANNELS 3 Xrotation Yrotation Zrotation
						End Site
						{
							OFFSET 0.000000 6.140627 18.619995
						}
					}
				}
				JOINT RightShoulder
				{
					OFFSET -4.175751 0.581443 10.709602
					CHANNELS 3 Xrotation Yrotation Zrotation
					JOINT RightArm
					{
						OFFSET 0.000000 -0.000002 14.046600
						CHANNELS 3 Xrotation Yrotation Zrotation
						JOINT RightArmRoll
						{
							OFFSET 0.000000 -0.000002 7.090988
							CHANNELS 3 Xrotation Yrotation Zrotation
							JOINT RightForeArm
							{
								OFFSET 0.000000 -0.000003 20.653503
								CHANNELS 3 Xrotation Yrotation Zrotation
								JOINT RightForeArmRoll
								{
									OFFSET 0.000000 -0.000002 7.957184
									CHANNELS 3 Xrotation Yrotation Zrotation
									JOINT RightHand
									{
										OFFSET 0.000000 -0.000002 15.968307
										CHANNELS 3 Xrotation Yrotation Zrotation
										End Site
										{
											OFFSET 0.000000 0.000000 0.100006
										}
									}
								}
							}
						}
					}
				}
				JOINT LeftShoulder
				{
					OFFSET 4.175751 0.581443 10.709602
					CHANNELS 3 Xrotation Yrotation Zrotation
					JOINT LeftArm
					{
						OFFSET 0.000000 -0.000002 14.046600
						CHANNELS 3 Xrotation Yrotation Zrotation
						JOINT LeftArmRoll
						{
							OFFSET 0.000000 -0.000002 7.090988
							CHANNELS 3 Xrotation Yrotation Zrotation
							JOINT LeftForeArm
							{
								OFFSET 0.000000 -0.000003 20.653503
								CHANNELS 3 Xrotation Yrotation Zrotation
								JOINT LeftForeArmRoll
								{
									OFFSET 0.000000 -0.000002 7.957184
									CHANNELS 3 Xrotation Yrotation Zrotation
									JOINT LeftHand
									{
										OFFSET 0.000000 -0.000002 15.968307
										CHANNELS 3 Xrotation Yrotation Zrotation
										End Site
										{
											OFFSET 0.000000 0.000000 0.100006
										}
									}
								}
							}
						}
					}
				}
			}
		}
	}
	JOINT RightUpLeg
	{
		OFFSET -7.208340 1.108840 -1.321823
		CHANNELS 3 Xrotation Yrotation Zrotation
		JOINT RightUpLegRoll
		{
			OFFSET 0.000000 -0.000003 18.723801
			CHANNELS 3 Xrotation Yrotation Zrotation
			JOINT RightLeg
			{
				OFFSET 0.000000 0.000004 -23.186600
				CHANNELS 3 Xrotation Yrotation Zrotation
				JOINT RightLegRoll
				{
					OFFSET 0.000000 -0.000004 23.262398
					CHANNELS 3 Xrotation Yrotation Zrotation
					JOINT RightFoot
					{
						OFFSET 0.000000 -0.000004 19.362099
						CHANNELS 3 Xrotation Yrotation Zrotation
						JOINT RightToeBase
						{
							OFFSET 0.000000 -0.000002 16.185699
							CHANNELS 3 Xrotation Yrotation Zrotation
							End Site
							{
								OFFSET 0.006859 0.903520 7.838623
							}
						}
					}
				}
			}
		}
	}
	JOINT LeftUpLeg
	{
		OFFSET 7.208340 1.108840 -1.321823
		CHANNELS 3 Xrotation Yrotation Zrotation
		JOINT LeftUpLegRoll
		{
			OFFSET 0.000000 -0.000003 18.723900
			CHANNELS 3 Xrotation Yrotation Zrotation
			JOINT LeftLeg
			{
				OFFSET 0.000000 -0.000004 23.186501
				CHANNELS 3 Xrotation Yrotation Zrotation
				JOINT LeftLegRoll
				{
					OFFSET 0.000000 -0.000004 23.477493
					CHANNELS 3 Xrotation Yrotation Zrotation
					JOINT LeftFoot
					{
						OFFSET 0.000000 -0.000004 19.147003
						CHANNELS 3 Xrotation Yrotation Zrotation
						JOINT LeftToeBase
						{
							OFFSET 0.000000 -0.000002 16.185699
							CHANNELS 3 Xrotation Yrotation Zrotation
							End Site
							{
								OFFSET -0.030746 0.903519 7.838623
							}
						}
					}
				}
			}
		}
	}
}
MOTION
Frames: 13
Frame Time: 0.041667
53.370705 -9.465330 96.006203 -5.755566 0.083551 -0.167304 -1.688520 -0.198661 0.062289 0.625985 -0.398656 0.136848 2.271075 -0.396991 0.141614 11.264590 6.918673 -2.423830 -0.483714 2.234320 -3.063242 -15.269941 -58.207309 -18.022233 -48.953274 -138.426214 -104.455189 -0.000001 0.000002 0.000003 103.439431 4.370264 -14.661163 -0.000003 -0.000006 -3.000004 -5.000193 -7.999027 0.000122 -9.280662 63.264873 11.226021 -55.113240 144.051927 92.114363 0.000004 -0.000006 0.000006 97.351117 -5.480458 10.039321 0.000004 -0.000014 3.000702 -5.000234 7.998920 -0.000155 0.521644 -171.652339 4.561394 179.999991 -0.000005 -0.976002 167.879397 -1.175211 -0.704369 -0.000007 0.000003 0.035220 70.313273 5.971015 4.495138 25.456853 -7.355619 -0.000003 1.070627 172.705254 -2.283667 -0.000019 -0.000003 -0.962006 -13.073210 1.020025 0.759430 0.000006 0.000001 -0.149812 72.229811 -6.048293 -4.271385 25.459382 7.355622 -0.003622 
53.383602 -9.477956 96.008202 -5.758506 0.084728 -0.176120 -1.687742 -0.198753 0.062601 0.627555 -0.398861 0.137431 2.272644 -0.397189 0.142200 11.233519 6.929726 -2.425759 -0.444306 2.216384 -3.066877 -15.208372 -58.235866 -17.949630 -48.982773 -138.395287 -104.425021 -0.000000 0.000003 0.000001 103.380084 4.341198 -14.599446 -0.000006 -0.000003 -2.999999 -5.000194 -7.999025 0.000121 -9.295017 63.272892 11.242988 -55.136736 144.017093 92.086782 0.000001 -0.000006 0.000001 97.365617 -5.474886 10.037665 0.000001 -0.000013 3.000688 -5.000232 7.998921 -0.000156 0.524718 -171.650345 4.563528 179.999991 -0.000004 -0.976002 167.881296 -1.176194 -0.704540 -0.000006 0.000003 0.035203 70.310794 5.970087 4.497111 25.456854 -7.355622 -0.000004 1.074858 172.706265 -2.285095 -0.000020 -0.000003 -0.962070 -13.077711 1.020308 0.759394 0.000006 0.000000 -0.150309 72.235486 -6.048803 -4.269959 25.459388 7.355621 -0.003622 
53.375904 -9.478325 96.007690 -5.761757 0.087201 -0.184584 -1.685620 -0.199351 0.062947 0.631800 -0.400042 0.137791 2.276894 -0.398381 0.142591 11.176321 6.947949 -2.425603 -0.385411 2.193560 -3.070367 -15.149459 -58.262128 -17.880178 -48.995976 -138.335264 -104.368760 -0.000002 -0.000002 0.000002 103.367475 4.328298 -14.578450 -0.000004 -0.000002 -3.000002 -5.000194 -7.999022 0.000122 -9.335577 63.275159 11.289843 -55.149300 143.971864 92.071681 -0.000000 -0.000007 0.000007 97.397336 -5.476549 10.049296 0.000002 -0.000015 3.000691 -5.000233 7.998925 -0.000156 0.528307 -171.651356 4.564859 179.999991 -0.000006 -0.976002 167.883605 -1.177180 -0.704702 -0.000007 0.000003 0.035183 70.308362 5.969292 4.499003 25.456848 -7.355621 -0.000003 1.077787 172.704284 -2.287634 -0.000020 -0.000004 -0.962135 -13.084813 1.020522 0.759356 0.000005 0.000001 -0.150721 72.242050 -6.049125 -4.268853 25.459383 7.355621 -0.003622 
53.375103 -9.481425 96.006599 -5.765060 0.090684 -0.192791 -1.682268 -0.200378 0.063349 0.638504 -0.402048 0.137974 2.283596 -0.400426 0.142843 11.091694 6.974121 -2.423587 -0.303189 2.164041 -3.073982 -15.089585 -58.287858 -17.809614 -48.996420 -138.248124 -104.275275 -0.000003 -0.000000 0.000004 103.399775 4.327305 -14.594571 -0.000004 -0.000006 -2.999998 -5.000191 -7.999023 0.000124 -9.399824 63.273329 11.363780 -55.148754 143.913684 92.064605 -0.000000 -0.000007 0.000003 97.452347 -5.485900 10.075551 0.000003 -0.000013 3.000692 -5.000232 7.998925 -0.000154 0.531908 -171.652353 4.565533 179.999991 -0.000006 -0.976002 167.885695 -1.179153 -0.705080 -0.000007 0.000003 0.035160 70.306054 5.968533 4.501097 25.456851 -7.355620 -0.000003 1.079341 172.700281 -2.291066 -0.000020 -0.000003 -0.962199 -13.094416 1.020746 0.759320 0.000005 0.000001 -0.151065 72.249413 -6.049283 -4.268379 25.459385 7.355622 -0.003622 
53.379204 -9.485184 96.007690 -5.768429 0.095047 -0.200726 -1.677840 -0.201779 0.063804 0.647376 -0.404783 0.138015 2.292476 -0.403223 0.142984 10.983345 7.007170 -2.419879 -0.201244 2.128848 -3.077655 -15.029297 -58.312692 -17.738590 -48.984689 -138.137243 -104.148500 -0.000002 0.000003 0.000003 103.471806 4.336973 -14.642481 -0.000005 -0.000006 -3.000000 -5.000193 -7.999026 0.000118 -9.484944 63.267749 11.461582 -55.137057 143.843880 92.065267 -0.000000 -0.000004 0.000004 97.527506 -5.502073 10.116231 0.000004 -0.000013 3.000692 -5.000233 7.998924 -0.000153 0.535552 -171.655372 4.565624 179.999991 -0.000005 -0.976003 167.887798 -1.180137 -0.705246 -0.000006 0.000003 0.035136 70.303854 5.967817 4.503288 25.456856 -7.355623 -0.000003 1.079705 172.695282 -2.295256 -0.000019 -0.000004 -0.962263 -13.106015 1.020961 0.759278 0.000005 0.000001 -0.151346 72.257350 -6.049288 -4.268449 25.459382 7.355621 -0.003622 
53.378304 -9.483433 96.007202 -5.771879 0.100156 -0.208376 -1.672482 -0.203507 0.064309 0.658115 -0.408152 0.137949 2.303209 -0.406668 0.143041 10.854962 7.046025 -2.414674 -0.083191 2.089028 -3.081318 -14.969324 -58.336734 -17.667961 -48.961248 -138.005939 -103.992355 -0.000000 -0.000000 0.000003 103.578603 4.356377 -14.716884 -0.000004 -0.000008 -2.999999 -5.000193 -7.999026 0.000122 -9.588135 63.258658 11.580054 -55.116994 143.763365 92.074044 0.000003 -0.000004 0.000007 97.619482 -5.524093 10.167132 0.000002 -0.000016 3.000690 -5.000234 7.998923 -0.000154 0.539282 -171.658363 4.565248 179.999991 -0.000005 -0.976002 167.889888 -1.181122 -0.704416 -0.000006 0.000003 0.035108 70.301853 5.967080 4.505666 25.456853 -7.355621 -0.000003 1.079075 172.689285 -2.300088 -0.000020 -0.000004 -0.962325 -13.119421 1.021168 0.759239 0.000005 0.000001 -0.151571 72.265874 -6.049129 -4.268964 25.459380 7.355622 -0.003622 
53.377106 -9.488165 96.007492 -5.775430 0.105881 -0.215727 -1.666331 -0.205510 0.064859 0.670428 -0.412060 0.137814 2.315528 -0.410661 0.143044 10.710344 7.089608 -2.408168 0.047375 2.045610 -3.084891 -14.910253 -58.359732 -17.598409 -48.927818 -137.856153 -103.812544 -0.000001 -0.000000 0.000005 103.715412 4.383912 -14.817479 -0.000003 -0.000009 -3.000000 -5.000193 -7.999027 0.000125 -9.706639 63.246527 11.716034 -55.089376 143.674627 92.088340 0.000001 -0.000005 0.000004 97.725131 -5.550741 10.228059 0.000001 -0.000014 3.000680 -5.000233 7.998926 -0.000154 0.543135 -171.663363 4.564490 179.999991 -0.000005 -0.976002 167.891883 -1.182118 -0.704586 -0.000007 0.000003 0.035080 70.299790 5.966469 4.508070 25.456853 -7.355621 -0.000003 1.077650 172.682291 -2.305457 -0.000019 -0.000003 -0.962384 -13.134223 1.021360 0.759198 0.000006 0.000001 -0.151747 72.274883 -6.048841 -4.269830 25.459385 7.355621 -0.003622 
53.367302 -9.480304 96.003197 -5.779090 0.112089 -0.222766 -1.659542 -0.207734 0.065451 0.684020 -0.416409 0.137643 2.329121 -0.415098 0.143020 10.553090 7.136857 -2.400556 0.186836 1.999650 -3.088339 -14.852747 -58.381588 -17.530717 -48.884897 -137.691300 -103.612979 -0.000000 -0.000002 -0.000000 103.877164 4.418339 -14.937950 -0.000005 -0.000006 -3.000002 -5.000192 -7.999026 0.000123 -9.837636 63.231706 11.866314 -55.056850 143.578472 92.108871 0.000000 -0.000006 0.000005 97.841176 -5.580984 10.297795 0.000001 -0.000014 3.000679 -5.000234 7.998924 -0.000153 0.547152 -171.668376 4.563436 179.999991 -0.000005 -0.976998 167.893986 -1.183103 -0.704752 -0.000007 0.000003 0.035049 70.297933 5.965834 4.510560 25.456851 -7.355620 -0.000002 1.075620 172.674272 -2.311248 -0.000020 -0.000003 -0.962443 -13.150126 1.021528 0.759157 0.000005 0.000000 -0.151884 72.284090 -6.048490 -4.270878 25.459383 7.355621 -0.003623 
53.375103 -9.484246 96.004997 -5.782881 0.118649 -0.229479 -1.652262 -0.210130 0.066083 0.698593 -0.421105 0.137474 2.343693 -0.419878 0.142995 10.387200 7.186693 -2.392093 0.331595 1.952188 -3.091626 -14.797439 -58.402154 -17.465624 -48.833698 -137.514084 -103.398573 -0.000001 0.000001 0.000002 104.058902 4.458026 -15.075969 -0.000003 -0.000006 -3.000001 -5.000195 -7.999023 0.000121 -9.978348 63.214562 12.027733 -55.020725 143.476784 92.133685 0.000002 -0.000007 0.000003 97.964222 -5.614028 10.371120 0.000001 -0.000012 3.000679 -5.000235 7.998922 -0.000157 0.551369 -171.673362 4.562209 179.999991 -0.000006 -0.977000 167.896077 -1.184086 -0.704917 -0.000006 0.000003 0.035016 70.296095 5.965269 4.512961 25.456858 -7.355620 -0.000003 1.073203 172.665270 -2.317357 -0.000020 -0.000003 -0.962503 -13.166831 1.021653 0.759115 0.000006 0.000001 -0.151984 72.293570 -6.048042 -4.272196 25.459383 7.355623 -0.003622 
53.368103 -9.479644 96.006096 -5.786805 0.125431 -0.235853 -1.644643 -0.212645 0.066751 0.713853 -0.426052 0.137341 2.358955 -0.424898 0.143000 10.216173 7.238041 -2.382977 0.478046 1.904245 -3.094745 -14.744922 -58.421217 -17.403845 -48.775627 -137.327415 -103.174078 -0.000003 0.000003 0.000002 104.255803 4.501928 -15.227248 -0.000004 -0.000006 -2.999998 -5.000195 -7.999024 0.000122 -10.126035 63.195547 12.197138 -54.982678 143.371654 92.161655 0.000001 -0.000006 0.000004 98.091270 -5.648747 10.447843 0.000002 -0.000014 3.000679 -5.000233 7.998928 -0.000155 0.555822 -171.678376 4.560875 179.999991 -0.000006 -0.976999 167.898167 -1.186046 -0.704281 -0.000007 0.000004 0.034981 70.294367 5.964744 4.515364 25.456858 -7.355620 -0.000004 1.070571 172.656268 -2.323648 -0.000020 -0.000004 -0.962559 -13.183933 1.021746 0.759077 0.000006 0.000001 -0.152057 72.302935 -6.047532 -4.273709 25.459388 7.355620 -0.003621 
53.371105 -9.481174 96.005699 -5.790886 0.132300 -0.241876 -1.636823 -0.215230 0.067451 0.729505 -0.431153 0.137279 2.374607 -0.430055 0.143060 10.043796 7.289822 -2.373500 0.622581 1.856881 -3.097705 -14.695883 -58.438743 -17.346167 -48.712072 -137.134161 -102.944345 -0.000003 0.000002 0.000001 104.462826 4.548711 -15.389473 -0.000002 -0.000006 -2.999999 -5.000192 -7.999025 0.000123 -10.277943 63.175049 12.371384 -54.945737 143.263191 92.194044 0.000001 -0.000006 0.000005 98.219090 -5.684086 10.527717 0.000003 -0.000015 3.000672 -5.000233 7.998925 -0.000155 0.560548 -171.684386 4.559542 179.999991 -0.000006 -0.976998 167.900366 -1.187044 -0.704447 -0.000006 0.000003 0.034943 70.292673 5.964282 4.517672 25.456851 -7.355619 -0.000004 1.067933 172.647252 -2.330027 -0.000020 -0.000003 -0.962616 -13.201237 1.021782 0.759035 0.000005 0.000001 -0.152108 72.312381 -6.046958 -4.275308 25.459383 7.355624 -0.003622 
53.372505 -9.466887 95.993698 -5.795125 0.139128 -0.247531 -1.628954 -0.217832 0.068179 0.745253 -0.436314 0.137324 2.390348 -0.435249 0.143204 9.873892 7.340968 -2.363953 0.761600 1.811120 -3.100522 -14.650956 -58.454562 -17.293327 -48.644027 -136.938053 -102.713361 -0.000001 0.000002 0.000005 104.674835 4.597294 -15.556297 -0.000003 -0.000003 -3.000000 -5.000194 -7.999027 0.000124 -10.431331 63.153561 12.547330 -54.910879 143.153989 92.228434 0.000003 -0.000007 0.000005 98.344076 -5.719358 10.605534 0.000000 -0.000014 3.000672 -5.000233 7.998921 -0.000154 0.565591 -171.690397 4.558292 179.999991 -0.000006 -0.976999 167.902661 -1.188030 -0.704610 -0.000007 0.000003 0.034904 70.291089 5.963864 4.519785 25.456856 -7.355621 -0.000004 1.065482 172.638277 -2.336359 -0.000019 -0.000004 -0.962672 -13.218240 1.021749 0.758992 0.000006 0.000001 -0.152146 72.321519 -6.046415 -4.276828 25.459382 7.355623 -0.003623 
53.367905 -9.469353 95.995293 -5.799562 0.145781 -0.252807 -1.621183 -0.220401 0.068934 0.760802 -0.441439 0.137510 2.405900 -0.440375 0.143456 9.710158 7.390407 -2.354655 0.891503 1.768016 -3.103258 -14.610770 -58.468468 -17.246089 -48.574697 -136.740947 -102.487876 -0.000002 -0.000001 0.000003 104.887069 4.646565 -15.726393 -0.000006 -0.000007 -3.000002 -5.000191 -7.999022 0.000123 -10.583425 63.131384 12.721814 -54.879412 143.045963 92.263152 0.000002 -0.000005 0.000003 98.463365 -5.753437 10.682068 0.000003 -0.000011 3.000670 -5.000233 7.998922 -0.000156 0.570983 -171.696394 4.557233 179.999991 -0.000005 -0.976998 167.905051 -1.189990 -0.704978 -0.000007 0.000003 0.034864 70.289504 5.963479 4.521703 25.456858 -7.355620 -0.000003 1.063407 172.629261 -2.342550 -0.000020 -0.000004 -0.962726 -13.234643 1.021661 0.758948 0.000006 0.000000 -0.152176 72.330337 -6.045841 -4.278363 25.459385 7.355623 -0.003622 
